HIERARCHY
ROOT Hips
{
	OFFSET 0.000000 0.000000 0.000000
	CHANNELS 6 Xposition Yposition Zposition Zrotation Yrotation Xrotation 
	JOINT LHipJoint
	{
		OFFSET 0.000000 0.000000 0.000000
		CHANNELS 3 Zrotation Yrotation Xrotation
		JOINT LeftUpLeg
		{
			OFFSET 1.363060 -1.794630 0.839290
			CHANNELS 3 Zrotation Yrotation Xrotation
			JOINT LeftLeg
			{
				OFFSET 2.448110 -6.726130 0.000000
				CHANNELS 3 Zrotation Yrotation Xrotation
				JOINT LeftFoot
				{
					OFFSET 2.562200 -7.039590 0.000000
					CHANNELS 3 Zrotation Yrotation Xrotation
					JOINT LeftToeBase
					{
						OFFSET 0.157640 -0.433110 2.322550
						CHANNELS 3 Zrotation Yrotation Xrotation
						End Site
						{
							OFFSET 0.000000 0.000000 0.000000
						}
					}
				}
			}
		}
	}
	JOINT RHipJoint
	{
		OFFSET 0.000000 0.000000 0.000000
		CHANNELS 3 Zrotation Yrotation Xrotation
		JOINT RightUpLeg
		{
			OFFSET -1.305520 -1.794630 0.839290
			CHANNELS 3 Zrotation Yrotation Xrotation
			JOINT RightLeg
			{
				OFFSET -2.542530 -6.985550 0.000000
				CHANNELS 3 Zrotation Yrotation Xrotation
				JOINT RightFoot
				{
					OFFSET -2.568260 -7.056230 0.000000
					CHANNELS 3 Zrotation Yrotation Xrotation
					JOINT RightToeBase
					{
						OFFSET -0.164730 -0.452590 2.363150
						CHANNELS 3 Zrotation Yrotation Xrotation
						End Site
						{
							OFFSET 0.000000 0.000000 0.000000
						}
					}
				}
			}
		}
	}
	JOINT LowerBack
	{
		OFFSET 0.000000 0.000000 0.000000
		CHANNELS 3 Zrotation Yrotation Xrotation
		JOINT Spine
		{
			OFFSET 0.028270 2.035590 -0.193380
			CHANNELS 3 Zrotation Yrotation Xrotation
			JOINT Spine1
			{
				OFFSET 0.056720 2.048850 -0.042750
				CHANNELS 3 Zrotation Yrotation Xrotation
				JOINT Neck
				{
					OFFSET 0.000000 0.000000 0.000000
					CHANNELS 3 Zrotation Yrotation Xrotation
					JOINT Neck1
					{
						OFFSET -0.054170 1.746240 0.172020
						CHANNELS 3 Zrotation Yrotation Xrotation
						JOINT Head
						{
							OFFSET 0.104070 1.761360 -0.123970
							CHANNELS 3 Zrotation Yrotation Xrotation
							End Site
							{
								OFFSET 0.000000 0.000000 0.000000
							}
						}
					}
				}
				JOINT LeftShoulder
				{
					OFFSET 0.000000 0.000000 0.000000
					CHANNELS 3 Zrotation Yrotation Xrotation
					JOINT LeftArm
					{
						OFFSET 3.362410 1.200890 -0.311210
						CHANNELS 3 Zrotation Yrotation Xrotation
						JOINT LeftForeArm
						{
							OFFSET 4.983000 -0.000000 -0.000000
							CHANNELS 3 Zrotation Yrotation Xrotation
							JOINT LeftHand
							{
								OFFSET 3.483560 -0.000000 -0.000000
								CHANNELS 3 Zrotation Yrotation Xrotation
								JOINT LeftFingerBase
								{
									OFFSET 0.000000 0.000000 0.000000
									CHANNELS 3 Zrotation Yrotation Xrotation
									JOINT LeftHandIndex1
									{
										OFFSET 0.715260 -0.000000 -0.000000
										CHANNELS 3 Zrotation Yrotation Xrotation
										End Site
										{
											OFFSET 0.000000 0.000000 0.000000
										}
									}
								}
								JOINT LThumb
								{
									OFFSET 0.000000 0.000000 0.000000
									CHANNELS 3 Zrotation Yrotation Xrotation
									End Site
									{
										OFFSET 0.000000 0.000000 0.000000
									}
								}
							}
						}
					}
				}
				JOINT RightShoulder
				{
					OFFSET 0.000000 0.000000 0.000000
					CHANNELS 3 Zrotation Yrotation Xrotation
					JOINT RightArm
					{
						OFFSET -3.136600 1.374050 -0.404650
						CHANNELS 3 Zrotation Yrotation Xrotation
						JOINT RightForeArm
						{
							OFFSET -5.241900 -0.000000 -0.000000
							CHANNELS 3 Zrotation Yrotation Xrotation
							JOINT RightHand
							{
								OFFSET -3.444170 -0.000000 -0.000000
								CHANNELS 3 Zrotation Yrotation Xrotation
								JOINT RightFingerBase
								{
									OFFSET 0.000000 0.000000 0.000000
									CHANNELS 3 Zrotation Yrotation Xrotation
									JOINT RightHandIndex1
									{
										OFFSET -0.622530 -0.000000 -0.000000
										CHANNELS 3 Zrotation Yrotation Xrotation
										End Site
										{
											OFFSET 0.000000 0.000000 0.000000
										}
									}
								}
								JOINT RThumb
								{
									OFFSET 0.000000 0.000000 0.000000
									CHANNELS 3 Zrotation Yrotation Xrotation
									End Site
									{
										OFFSET 0.000000 0.000000 0.000000
									}
								}
							}
						}
					}
				}
			}
		}
	}
}
MOTION
Frames: 11
Frame Time: 0.008333
-2.584223 15.616628 -1.254495 -149.992856 78.499539 -123.528594 -13.795094 -0.282525 -5.401866 -8.884909 5.764099 -28.763378 -0.426123 3.961400 63.243175 1.569733 7.846218 -19.776469 -1.792800 -0.000000 -54.867300 5.805982 0.425930 -1.714543 16.577594 2.665509 -65.750886 3.647179 -4.200814 38.425650 2.210789 14.076734 5.244341 2.943599 0.000000 -53.318699 8.853513 -2.379433 11.196649 1.178685 -2.524958 -0.788525 -5.208924 -2.436260 -0.713502 4.470746 -11.032999 -4.151611 -3.663184 -0.285513 0.533231 0.000000 0.000000 0.000000 10.040714 4.525261 -1.345921 -66.658295 -13.712867 8.099656 -178.347117 -60.784600 179.926012 7.234864 1.168198 0.040708 -0.261226 0.580225 -0.000000 0.000000 0.000000 0.000000 0.000000 0.000000 0.000000 6.098306 -8.944551 0.972829 70.888681 -19.984286 1.337456 0.126154 84.647195 -0.035038 -9.801748 2.134849 -0.205410 0.118529 -0.242280 -0.000000 0.000000 0.000000 0.000000 0.000000 0.000000 0.000000 
-2.398586 15.561631 -1.278653 -150.885694 77.947782 -124.855113 -13.945259 -0.198900 -5.513523 -8.455048 6.435235 -28.494784 -0.247101 4.124278 64.592297 1.565754 8.178054 -18.723033 -1.679800 -0.000000 -55.419500 5.852158 0.515050 -1.949854 16.498064 2.330090 -65.809580 3.337201 -4.435152 41.366146 2.081794 13.637000 3.863078 2.558400 -0.000001 -49.529501 9.065668 -2.434015 11.477668 1.229660 -2.568779 -0.775888 -5.180194 -2.482735 -0.849479 4.489973 -10.845130 -4.016436 -3.683450 -0.287657 0.569480 0.000000 0.000000 0.000000 9.899073 4.106628 -1.306961 -67.373698 -12.648146 8.377741 -178.381570 -61.003579 179.928482 7.072661 0.988895 0.028308 -0.250000 0.581584 -0.000000 0.000000 0.000000 0.000000 0.000000 0.000000 0.000000 6.115292 -8.773554 0.992845 70.905090 -19.920120 1.106912 0.126956 84.716845 -0.034339 -9.582322 2.304841 -0.215422 0.115319 -0.244797 -0.000000 0.000000 0.000000 0.000000 0.000000 0.000000 0.000000 
-2.217209 15.508778 -1.306114 -151.639754 77.330773 -126.058061 -14.112366 -0.135337 -5.617397 -7.942334 7.092773 -28.293463 -0.048984 4.292763 65.992562 1.574334 8.576448 -17.546057 -1.550400 -0.000001 -55.147300 5.882640 0.587733 -2.221531 16.576592 1.868026 -65.795849 3.064780 -4.653902 44.262490 1.956684 13.237500 2.304881 2.161700 0.000000 -46.166399 9.323235 -2.489970 11.791323 1.285162 -2.611010 -0.762322 -5.168251 -2.528400 -1.006574 4.561989 -10.585654 -3.847748 -3.716624 -0.290737 0.613879 0.000000 0.000000 0.000000 9.678704 3.631820 -1.254416 -68.155708 -11.540175 8.640924 -178.421607 -61.359986 179.931026 6.906025 0.775692 0.014207 -0.237896 0.583445 -0.000000 0.000000 0.000000 0.000000 0.000000 0.000000 0.000000 6.246015 -8.557144 1.017482 70.843314 -19.733936 0.833774 0.131048 84.651634 -0.033765 -9.410528 2.429203 -0.222036 0.112788 -0.246438 -0.000000 0.000000 0.000000 0.000000 0.000000 0.000000 0.000000 
-2.040319 15.459531 -1.336813 -152.223207 76.654839 -127.088576 -14.295593 -0.097135 -5.711194 -7.346559 7.720481 -28.176423 0.164487 4.464965 67.426262 1.597053 9.035343 -16.266458 -1.402400 -0.000000 -53.878900 5.893551 0.634929 -2.515671 16.801284 1.314299 -65.691875 2.837296 -4.849552 46.986191 1.837996 12.877691 0.650122 1.770200 0.000000 -43.502800 9.620205 -2.545590 12.125332 1.343244 -2.649894 -0.747994 -5.176079 -2.571350 -1.177319 4.697172 -10.260576 -3.650086 -3.760895 -0.294543 0.665222 0.000000 0.000000 0.000000 9.375409 3.124338 -1.189296 -68.995233 -10.407372 8.884394 -178.469570 -61.881338 179.933518 6.747046 0.544713 -0.000297 -0.225334 0.585025 -0.000000 0.000000 0.000000 0.000000 0.000000 0.000000 0.000000 6.500618 -8.304717 1.042905 70.698286 -19.398825 0.528153 0.138940 84.429691 -0.033361 -9.302271 2.491114 -0.224653 0.111236 -0.246926 -0.000000 0.000000 0.000000 0.000000 0.000000 0.000000 0.000000 
-1.867994 15.414978 -1.370260 -152.641625 75.933010 -127.937938 -14.490647 -0.086408 -5.793365 -6.680401 8.304636 -28.157289 0.386819 4.639483 68.880285 1.635212 9.545751 -14.945210 -1.240400 0.000000 -51.303900 5.884384 0.652167 -2.819855 17.149968 0.702233 -65.492672 2.655906 -5.018669 49.455727 1.726299 12.552104 -1.036287 1.395700 -0.000000 -41.672500 9.944159 -2.598912 12.467774 1.401047 -2.683423 -0.732704 -5.205154 -2.609422 -1.353532 4.902305 -9.881860 -3.429655 -3.812977 -0.298770 0.721948 0.000000 0.000000 0.000000 8.991041 2.603028 -1.114108 -69.880235 -9.259624 9.100253 -178.529285 -62.594984 179.935825 6.610071 0.311002 -0.014206 -0.212677 0.585466 -0.000000 0.000000 0.000000 0.000000 0.000000 0.000000 0.000000 6.879820 -8.029330 1.065762 70.473989 -18.892415 0.199838 0.151073 84.032169 -0.033177 -9.272893 2.476373 -0.222673 0.110923 -0.246062 -0.000000 0.000000 0.000000 0.000000 0.000000 0.000000 0.000000 
-1.700075 15.375928 -1.405847 -152.917419 75.179251 -128.616584 -14.691421 -0.103529 -5.862544 -5.964808 8.834592 -28.247795 0.611262 4.814628 70.339327 1.688930 10.098994 -13.649828 -1.071200 0.000000 -47.390700 5.856645 0.638694 -3.122032 17.592494 0.065620 -65.202365 2.517696 -5.159863 51.625350 1.620422 12.248298 -2.702066 1.046300 -0.000000 -40.684500 10.279587 -2.647966 12.806108 1.455264 -2.709726 -0.715907 -5.257032 -2.640503 -1.525463 5.181528 -9.461450 -3.194961 -3.869115 -0.303084 0.781927 0.000000 0.000000 0.000000 8.529115 2.093927 -1.031148 -70.792084 -8.115849 9.286068 -178.603452 -63.532095 179.937813 6.511068 0.096481 -0.026423 -0.200468 0.583684 -0.000000 0.000000 0.000000 0.000000 0.000000 0.000000 0.000000 7.379984 -7.741643 1.081790 70.181101 -18.203607 -0.145414 0.167596 83.451525 -0.033262 -9.335339 2.375070 -0.215592 0.112006 -0.243755 -0.000000 0.000000 0.000000 0.000000 0.000000 0.000000 0.000000 
-1.536236 15.342746 -1.442721 -153.098028 74.410061 -129.163437 -14.889397 -0.145967 -5.918725 -5.230227 9.303578 -28.454103 0.830783 4.988938 71.790787 1.757125 10.686946 -12.466498 -0.907000 0.000000 -42.140900 5.815189 0.598077 -3.412200 18.092769 -0.568743 -64.830810 2.416782 -5.273527 53.481880 1.518455 11.952385 -4.306941 0.728200 0.000000 -40.432999 10.607207 -2.690946 13.129469 1.502250 -2.727292 -0.696685 -5.331823 -2.662819 -1.683069 5.533915 -9.015487 -2.956236 -3.925073 -0.307142 0.842591 0.000000 0.000000 0.000000 7.999553 1.620058 -0.943614 -71.709896 -6.991548 9.438797 -178.694477 -64.718412 179.939350 6.467994 -0.079900 -0.036153 -0.189258 0.578730 -0.000000 0.000000 0.000000 0.000000 0.000000 0.000000 0.000000 7.988910 -7.453772 1.087302 69.839184 -17.329188 -0.505654 0.188353 82.688373 -0.033667 -9.499361 2.183754 -0.203013 0.114529 -0.240056 -0.000000 0.000000 0.000000 0.000000 0.000000 0.000000 0.000000 
-1.376122 15.315473 -1.480136 -153.230075 73.640004 -129.620252 -15.075770 -0.210062 -5.962308 -4.511671 9.707487 -28.777500 1.040710 5.160124 73.219101 1.837997 11.306597 -11.455276 -0.758301 -0.000000 -35.919499 5.766465 0.536405 -3.681921 18.611405 -1.179133 -64.391597 2.345771 -5.361286 55.035189 1.418237 11.648941 -5.819728 0.446099 -0.000000 -40.741200 10.906866 -2.726317 13.428100 1.538396 -2.735156 -0.674174 -5.429260 -2.675143 -1.816932 5.953983 -8.559649 -2.724478 -3.976679 -0.310638 0.901181 0.000000 0.000000 0.000000 7.415101 1.203175 -0.854033 -72.609409 -5.902475 9.557416 -178.803471 -66.180458 179.940316 6.500255 -0.199592 -0.042796 -0.179645 0.569753 -0.000000 0.000000 0.000000 0.000000 0.000000 0.000000 0.000000 8.688096 -7.174316 1.079023 69.474363 -16.276458 -0.883603 0.212722 81.754764 -0.034435 -9.769946 1.905524 -0.184439 0.118412 -0.235161 -0.000000 0.000000 0.000000 0.000000 0.000000 0.000000 0.000000 
-1.219263 15.293904 -1.517291 -153.368300 72.884390 -130.038088 -15.241545 -0.290874 -5.993895 -3.846981 10.042354 -29.214553 1.239037 5.325093 74.608375 1.929943 11.960512 -10.635517 -0.630200 -0.000000 -29.401500 5.718524 0.462044 -3.924845 19.107882 -1.749618 -63.900771 2.296230 -5.425715 56.312467 1.317880 11.323135 -7.217263 0.203400 0.000000 -41.395999 11.158733 -2.752707 13.693710 1.560394 -2.732869 -0.648004 -5.547828 -2.676869 -1.919861 6.431545 -8.106254 -2.509552 -4.020689 -0.313377 0.955235 0.000000 0.000000 0.000000 6.792576 0.860186 -0.763925 -73.465882 -4.861015 9.640869 -178.929800 -67.934487 179.940626 6.627780 -0.243650 -0.045455 -0.172207 0.556096 -0.000000 0.000000 0.000000 0.000000 0.000000 0.000000 0.000000 9.455056 -6.906383 1.054645 69.117296 -15.065041 -1.287700 0.239533 80.675124 -0.035600 -10.147584 1.550749 -0.159263 0.123464 -0.229398 0.000000 0.000000 0.000000 0.000000 0.000000 0.000000 0.000000 
-1.065203 15.277643 -1.553572 -153.561053 72.156646 -130.463479 -15.379328 -0.382805 -6.014450 -3.271809 10.306155 -29.759838 1.425386 5.480986 75.950982 2.031321 12.649777 -10.009009 -0.526000 -0.000000 -23.286900 5.679342 0.383781 -4.136487 19.545795 -2.269632 -63.376221 2.259715 -5.470169 57.352475 1.216087 10.962792 -8.484472 0.001900 -0.000000 -42.182800 11.347192 -2.768498 13.919411 1.566119 -2.720082 -0.618092 -5.684043 -2.667597 -1.985958 6.950366 -7.668570 -2.321061 -4.054054 -0.315204 1.002321 0.000000 0.000000 0.000000 6.150480 0.605228 -0.674186 -74.257962 -3.880305 9.692347 -179.071218 -69.990405 179.940213 6.870773 -0.197452 -0.043225 -0.167446 0.537485 0.000000 0.000000 0.000000 0.000000 0.000000 0.000000 0.000000 10.258939 -6.652424 1.012969 68.801046 -13.719041 -1.726606 0.267166 79.481100 -0.037184 -10.628327 1.136594 -0.127290 0.129432 -0.223196 0.000000 0.000000 0.000000 0.000000 0.000000 0.000000 0.000000 
-0.913611 15.266230 -1.588652 -153.846085 71.467270 -130.933257 -15.483695 -0.480277 -6.025210 -2.819381 10.497921 -30.406615 1.600648 5.624928 77.245230 2.140747 13.374002 -9.558786 -0.445700 0.000000 -18.189200 5.656179 0.310099 -4.314176 19.892626 -2.733909 -62.837023 2.228354 -5.498594 58.200407 1.112264 10.560026 -9.613427 -0.157900 0.000001 -42.924000 11.460436 -2.772639 14.100416 1.554209 -2.697103 -0.585235 -5.833658 -2.647755 -2.013377 7.491359 -7.252684 -2.164902 -4.074861 -0.316076 1.040993 0.000000 0.000000 0.000000 5.506789 0.444313 -0.583629 -74.966574 -2.967217 9.716096 -179.223942 -72.349656 179.939074 7.247798 -0.046414 -0.034405 -0.165706 0.513894 -0.000000 0.000000 0.000000 0.000000 0.000000 0.000000 0.000000 11.067732 -6.407620 0.954033 68.556445 -12.273254 -2.210672 0.293517 78.214786 -0.039192 -11.204064 0.684777 -0.088817 0.136027 -0.217036 0.000000 0.000000 0.000000 0.000000 0.000000 0.000000 0.000000 
